<svg width="18" height="24" viewBox="0 0 18 24" fill="none" xmlns="http://www.w3.org/2000/svg">
<path d="M8.99998 0C4.11133 0 0.134277 3.97705 0.134277 8.86571C0.134277 10.4751 0.85605 12.206 0.886298 12.279C1.11941 12.8323 1.57939 13.6918 1.91107 14.1956L7.98981 23.406C8.23857 23.7836 8.60676 24 8.99998 24C9.3932 24 9.76139 23.7836 10.0101 23.4065L16.0894 14.1956C16.4216 13.6918 16.8811 12.8323 17.1142 12.279C17.1444 12.2065 17.8657 10.4756 17.8657 8.86571C17.8657 3.97705 13.8886 0 8.99998 0ZM16.1525 11.8743C15.9444 12.3703 15.5163 13.1698 15.2185 13.6214L9.13923 22.8323C9.01928 23.0143 8.98121 23.0143 8.86126 22.8323L2.78199 13.6214C2.48421 13.1698 2.05605 12.3698 1.84797 11.8738C1.8391 11.8524 1.1773 10.2592 1.1773 8.86571C1.1773 4.55228 4.68656 1.04302 8.99998 1.04302C13.3134 1.04302 16.8227 4.55228 16.8227 8.86571C16.8227 10.2613 16.1593 11.8587 16.1525 11.8743Z" fill="black"/>
<path d="M9.00001 4.17261C6.41174 4.17261 4.3064 6.27847 4.3064 8.86622C4.3064 11.454 6.41174 13.5598 9.00001 13.5598C11.5883 13.5598 13.6936 11.454 13.6936 8.86622C13.6936 6.27847 11.5883 4.17261 9.00001 4.17261ZM9.00001 12.5168C6.98749 12.5168 5.34942 10.8793 5.34942 8.86622C5.34942 6.85318 6.98749 5.21563 9.00001 5.21563C11.0125 5.21563 12.6506 6.85318 12.6506 8.86622C12.6506 10.8793 11.0125 12.5168 9.00001 12.5168Z" fill="black"/>
</svg>
