<svg width="32" height="20" viewBox="0 0 32 20" fill="none" xmlns="http://www.w3.org/2000/svg">
<path d="M31.7148 17.1562C31.6288 17.0122 31.0968 15.8561 28.5366 13.48C25.8564 10.9918 26.2164 11.3958 29.4446 7.09348C31.4108 4.47329 32.1968 2.87317 31.9508 2.18912C31.7168 1.53707 30.2707 1.70908 30.2707 1.70908L25.4623 1.73708C25.4623 1.73708 25.1063 1.68908 24.8403 1.84709C24.5823 2.0031 24.4163 2.36313 24.4163 2.36313C24.4163 2.36313 23.6542 4.39128 22.6381 6.11541C20.496 9.75368 19.6379 9.94569 19.2879 9.71968C18.4738 9.19364 18.6778 7.60352 18.6778 6.47544C18.6778 2.94917 19.2119 1.47906 17.6358 1.09904C17.1117 0.973027 16.7277 0.88902 15.3896 0.875019C13.6735 0.857018 12.2194 0.88102 11.3973 1.28305C10.8493 1.55107 10.4272 2.14911 10.6852 2.18312C11.0033 2.22512 11.7233 2.37713 12.1053 2.89717C12.5994 3.56722 12.5814 5.07533 12.5814 5.07533C12.5814 5.07533 12.8654 9.22564 11.9193 9.74168C11.2693 10.0957 10.3792 9.37365 8.46908 6.07141C7.491 4.38128 6.75095 2.51114 6.75095 2.51114C6.75095 2.51114 6.60894 2.16312 6.35492 1.9771C6.0469 1.75108 5.61486 1.67908 5.61486 1.67908L1.04252 1.70708C1.04252 1.70708 0.356473 1.72708 0.104454 2.02511C-0.119562 2.29113 0.0864529 2.83916 0.0864529 2.83916C0.0864529 2.83916 3.66672 11.2138 7.71902 15.4361C11.4373 19.3064 15.6576 19.0524 15.6576 19.0524H17.5698C17.5698 19.0524 18.1478 18.9884 18.4418 18.6703C18.7138 18.3783 18.7038 17.8303 18.7038 17.8303C18.7038 17.8303 18.6658 15.2641 19.8579 14.8861C21.032 14.514 22.5401 17.3662 24.1382 18.4643C25.3463 19.2944 26.2644 19.1124 26.2644 19.1124L30.5387 19.0524C30.5387 19.0524 32.7749 18.9144 31.7148 17.1562Z" fill="white"/>
</svg>
