<svg width="24" height="16" viewBox="0 0 24 16" fill="none" xmlns="http://www.w3.org/2000/svg">
<path d="M22.7692 0H1.2308C0.553828 0 0 0.553828 0 1.23075V14.7692C0 15.4461 0.553828 16 1.2308 16H22.7692C23.4461 16 24 15.4462 24 14.7692V1.23075C24 0.553828 23.4462 0 22.7692 0ZM22.3073 0.923016L12.708 8.12311C12.5354 8.25445 12.2705 8.33662 12 8.33541C11.7295 8.33662 11.4646 8.25445 11.292 8.12311L1.69261 0.923016H22.3073ZM17.1797 8.59819L22.4105 15.0598C22.4157 15.0662 22.4221 15.0712 22.4277 15.077H1.57228C1.57781 15.0709 1.58428 15.0662 1.58953 15.0598L6.82031 8.59819C6.98058 8.40005 6.9502 8.10956 6.75169 7.94892C6.55355 7.78866 6.26306 7.81903 6.10275 8.01722L0.923062 14.4157V1.49995L10.7384 8.86148C11.1074 9.13626 11.5562 9.2572 11.9999 9.25842C12.443 9.25748 12.8922 9.13655 13.2614 8.86148L23.0767 1.49995V14.4156L17.8972 8.01722C17.7369 7.81908 17.4461 7.78861 17.2483 7.94892C17.0498 8.10919 17.0193 8.40005 17.1797 8.59819Z" fill="black"/>
</svg>
