<svg width="25" height="24" viewBox="0 0 25 24" fill="none" xmlns="http://www.w3.org/2000/svg">
<path d="M5.39047 15.9536C7.75765 18.7833 10.6072 21.0112 13.8596 22.5877C15.0979 23.1745 16.7539 23.8707 18.5989 23.9901C18.7133 23.995 18.8227 24 18.9371 24C20.1754 24 21.17 23.5723 21.9806 22.6921C21.9856 22.6871 21.9955 22.6772 22.0005 22.6672C22.2889 22.3191 22.6172 22.0058 22.9603 21.6726C23.194 21.4488 23.4327 21.2151 23.6615 20.9764C24.7208 19.8724 24.7208 18.47 23.6516 17.4007L20.6627 14.4119C20.1555 13.8848 19.5488 13.6063 18.9122 13.6063C18.2757 13.6063 17.664 13.8848 17.1418 14.407L15.3615 16.1873C15.1974 16.0928 15.0283 16.0083 14.8691 15.9287C14.6702 15.8293 14.4862 15.7348 14.3221 15.6303C12.7009 14.6009 11.2288 13.2582 9.82147 11.5325C9.11032 10.6324 8.63291 9.8765 8.29972 9.10568C8.76718 8.68297 9.20481 8.24037 9.62752 7.80771C9.77672 7.65354 9.93088 7.49938 10.085 7.34521C10.6221 6.80812 10.9106 6.18649 10.9106 5.55491C10.9106 4.92333 10.6271 4.3017 10.085 3.76461L8.60307 2.28264C8.42901 2.10858 8.2649 1.93949 8.09582 1.76544C7.7676 1.42727 7.42446 1.07915 7.08629 0.765852C6.57406 0.263572 5.97232 0 5.33577 0C4.70419 0 4.09748 0.263572 3.56536 0.770825L1.70543 2.63075C1.0291 3.30709 0.646173 4.12764 0.566604 5.0775C0.472115 6.26606 0.69093 7.52922 1.25786 9.05595C2.12815 11.4182 3.44103 13.6113 5.39047 15.9536ZM1.78003 5.18193C1.83971 4.52051 2.09333 3.9685 2.57075 3.49109L4.42073 1.64111C4.70916 1.36262 5.02744 1.2184 5.33577 1.2184C5.63913 1.2184 5.94746 1.36262 6.23092 1.65106C6.56412 1.95939 6.87742 2.28264 7.21559 2.62578C7.38467 2.79983 7.55873 2.97389 7.73279 3.15292L9.21476 4.63489C9.52309 4.94322 9.68223 5.25653 9.68223 5.56486C9.68223 5.87319 9.52309 6.18649 9.21476 6.49482C9.06059 6.64898 8.90643 6.80812 8.75226 6.96229C8.28977 7.42976 7.85711 7.87236 7.3797 8.29507C7.36975 8.30501 7.36478 8.30999 7.35483 8.31993C6.94207 8.7327 7.00672 9.12557 7.10618 9.42395C7.11115 9.43887 7.11613 9.44882 7.1211 9.46374C7.50403 10.3838 8.03614 11.259 8.86664 12.3034C10.3586 14.1434 11.93 15.5707 13.6607 16.6697C13.8745 16.809 14.1033 16.9184 14.3171 17.0278C14.516 17.1272 14.7 17.2217 14.8642 17.3261C14.884 17.3361 14.899 17.346 14.9189 17.356C15.083 17.4405 15.2421 17.4803 15.4012 17.4803C15.7991 17.4803 16.0577 17.2267 16.1422 17.1421L18.0022 15.2822C18.2906 14.9938 18.6039 14.8396 18.9122 14.8396C19.2902 14.8396 19.5985 15.0734 19.7925 15.2822L22.7912 18.276C23.388 18.8728 23.383 19.5193 22.7763 20.1509C22.5674 20.3746 22.3486 20.5885 22.1149 20.8123C21.7668 21.1504 21.4037 21.4986 21.0755 21.8914C20.5036 22.5081 19.8223 22.7965 18.9421 22.7965C18.8575 22.7965 18.768 22.7915 18.6835 22.7866C17.0523 22.6821 15.5355 22.0456 14.3967 21.5035C11.3034 20.0066 8.58815 17.8831 6.33536 15.1877C4.4804 12.9548 3.23216 10.8761 2.40664 8.64816C1.89441 7.28056 1.70046 6.18152 1.78003 5.18193Z" fill="black"/>
</svg>
